<mxfile host="Electron" modified="2023-11-22T15:58:27.734Z" agent="Mozilla/5.0 (X11; Linux x86_64) AppleWebKit/537.36 (KHTML, like Gecko) draw.io/22.1.2 Chrome/114.0.5735.289 Electron/25.9.4 Safari/537.36" etag="Bft7eksArwqQsClPBlV0" version="22.1.2" type="device">
  <diagram name="Page-1" id="QUvpyZr5U2JnBXVS3iqY">
    <mxGraphModel dx="2954" dy="1235" grid="1" gridSize="10" guides="1" tooltips="1" connect="1" arrows="1" fold="1" page="1" pageScale="1" pageWidth="1169" pageHeight="827" math="0" shadow="0">
      <root>
        <mxCell id="0" />
        <mxCell id="1" parent="0" />
        <mxCell id="oxKnPRSLN9aaxVHOPP5Y-54" value="" style="rounded=1;whiteSpace=wrap;html=1;fillColor=none;arcSize=5;strokeWidth=2;strokeColor=#000000;" parent="1" vertex="1">
          <mxGeometry x="1360" y="438.38" width="543.25" height="500" as="geometry" />
        </mxCell>
        <mxCell id="oxKnPRSLN9aaxVHOPP5Y-62" value="" style="rounded=1;whiteSpace=wrap;html=1;fillColor=none;arcSize=5;strokeColor=#000000;strokeWidth=2;" parent="1" vertex="1">
          <mxGeometry x="740.0000000000001" y="331.5" width="450" height="430" as="geometry" />
        </mxCell>
        <mxCell id="oxKnPRSLN9aaxVHOPP5Y-66" value="1" style="rounded=1;whiteSpace=wrap;html=1;fillColor=none;arcSize=5;strokeWidth=2;strokeColor=#000000;" parent="1" vertex="1">
          <mxGeometry x="1235" y="51.25" width="480" height="333.5" as="geometry" />
        </mxCell>
        <mxCell id="oxKnPRSLN9aaxVHOPP5Y-52" value="" style="rounded=1;whiteSpace=wrap;html=1;fillColor=none;arcSize=5;strokeColor=#000000;strokeWidth=2;" parent="1" vertex="1">
          <mxGeometry x="144.63" y="637.75" width="544.06" height="250" as="geometry" />
        </mxCell>
        <mxCell id="oxKnPRSLN9aaxVHOPP5Y-86" value="" style="rounded=1;whiteSpace=wrap;html=1;fillColor=none;arcSize=5;strokeColor=#000000;strokeWidth=2;" parent="1" vertex="1">
          <mxGeometry x="160" y="70" width="495" height="482" as="geometry" />
        </mxCell>
        <mxCell id="oxKnPRSLN9aaxVHOPP5Y-83" value="" style="rounded=1;whiteSpace=wrap;html=1;fillColor=none;arcSize=5;strokeWidth=2;strokeColor=#000000;" parent="1" vertex="1">
          <mxGeometry x="143.1" y="920.75" width="234.06" height="100" as="geometry" />
        </mxCell>
        <mxCell id="oxKnPRSLN9aaxVHOPP5Y-60" value="" style="rounded=1;whiteSpace=wrap;html=1;fillColor=none;arcSize=5;strokeColor=#000000;strokeWidth=2;" parent="1" vertex="1">
          <mxGeometry x="720" y="798.44" width="600" height="371.56" as="geometry" />
        </mxCell>
        <mxCell id="oxKnPRSLN9aaxVHOPP5Y-64" value="" style="rounded=1;whiteSpace=wrap;html=1;fillColor=none;arcSize=5;strokeColor=#000000;strokeWidth=2;" parent="1" vertex="1">
          <mxGeometry x="720" y="50" width="390" height="229.5" as="geometry" />
        </mxCell>
        <mxCell id="00-jEsmdZW9ChJH3AIX_-1" value="" style="rounded=1;whiteSpace=wrap;html=1;fillColor=none;" parent="1" vertex="1">
          <mxGeometry x="10" y="10" width="110" height="330" as="geometry" />
        </mxCell>
        <mxCell id="00-jEsmdZW9ChJH3AIX_-2" value="Actor" style="rounded=1;whiteSpace=wrap;html=1;fillColor=#fff2cc;strokeColor=#d6b656;shadow=1;glass=0;" parent="1" vertex="1">
          <mxGeometry x="25" y="50" width="80" height="30" as="geometry" />
        </mxCell>
        <mxCell id="00-jEsmdZW9ChJH3AIX_-3" value="&lt;b&gt;Legend&lt;/b&gt;" style="text;html=1;strokeColor=none;fillColor=none;align=center;verticalAlign=middle;whiteSpace=wrap;rounded=1;" parent="1" vertex="1">
          <mxGeometry x="35" y="10" width="60" height="30" as="geometry" />
        </mxCell>
        <mxCell id="00-jEsmdZW9ChJH3AIX_-4" value="Action" style="rounded=1;whiteSpace=wrap;html=1;fillColor=#dae8fc;strokeColor=#6c8ebf;shadow=1;glass=0;" parent="1" vertex="1">
          <mxGeometry x="25" y="90" width="80" height="30" as="geometry" />
        </mxCell>
        <mxCell id="00-jEsmdZW9ChJH3AIX_-5" value="Event" style="rounded=1;whiteSpace=wrap;html=1;fillColor=#ffe6cc;strokeColor=#d79b00;shadow=1;glass=0;" parent="1" vertex="1">
          <mxGeometry x="25" y="130" width="80" height="30" as="geometry" />
        </mxCell>
        <mxCell id="00-jEsmdZW9ChJH3AIX_-6" value="Policy" style="rounded=1;whiteSpace=wrap;html=1;fillColor=#e1d5e7;strokeColor=#9673a6;shadow=1;glass=0;" parent="1" vertex="1">
          <mxGeometry x="25" y="170" width="80" height="30" as="geometry" />
        </mxCell>
        <mxCell id="00-jEsmdZW9ChJH3AIX_-7" value="Read model" style="rounded=1;whiteSpace=wrap;html=1;fillColor=#d5e8d4;strokeColor=#82b366;shadow=1;glass=0;" parent="1" vertex="1">
          <mxGeometry x="25" y="210" width="80" height="30" as="geometry" />
        </mxCell>
        <mxCell id="00-jEsmdZW9ChJH3AIX_-83" value="" style="edgeStyle=orthogonalEdgeStyle;rounded=1;orthogonalLoop=1;jettySize=auto;html=1;" parent="1" source="00-jEsmdZW9ChJH3AIX_-8" target="00-jEsmdZW9ChJH3AIX_-43" edge="1">
          <mxGeometry relative="1" as="geometry" />
        </mxCell>
        <mxCell id="00-jEsmdZW9ChJH3AIX_-8" value="Поставщик печенек" style="rounded=1;whiteSpace=wrap;html=1;fillColor=#ffcccc;strokeColor=#36393d;shadow=1;glass=0;" parent="1" vertex="1">
          <mxGeometry x="1077.38" y="886.69" width="80" height="67.5" as="geometry" />
        </mxCell>
        <mxCell id="oxKnPRSLN9aaxVHOPP5Y-104" style="edgeStyle=orthogonalEdgeStyle;rounded=1;orthogonalLoop=1;jettySize=auto;html=1;exitX=0.5;exitY=1;exitDx=0;exitDy=0;entryX=0.5;entryY=0;entryDx=0;entryDy=0;" parent="1" source="00-jEsmdZW9ChJH3AIX_-17" target="00-jEsmdZW9ChJH3AIX_-120" edge="1">
          <mxGeometry relative="1" as="geometry">
            <Array as="points">
              <mxPoint x="333" y="910" />
              <mxPoint x="265" y="910" />
            </Array>
          </mxGeometry>
        </mxCell>
        <mxCell id="00-jEsmdZW9ChJH3AIX_-17" value="Заказ создан" style="rounded=1;whiteSpace=wrap;html=1;fillColor=#ffe6cc;strokeColor=#d79b00;shadow=1;" parent="1" vertex="1">
          <mxGeometry x="306.07" y="684.75" width="54.06" height="57" as="geometry" />
        </mxCell>
        <mxCell id="00-jEsmdZW9ChJH3AIX_-18" value="Тип услуги добавлен/изменен менеджером" style="rounded=1;whiteSpace=wrap;html=1;fillColor=#ffe6cc;strokeColor=#d79b00;shadow=1;" parent="1" vertex="1">
          <mxGeometry x="339.16" y="790.1300000000001" width="94.06" height="79.5" as="geometry" />
        </mxCell>
        <mxCell id="00-jEsmdZW9ChJH3AIX_-50" style="edgeStyle=orthogonalEdgeStyle;rounded=1;orthogonalLoop=1;jettySize=auto;html=1;entryX=0.25;entryY=0;entryDx=0;entryDy=0;exitX=1;exitY=0.25;exitDx=0;exitDy=0;" parent="1" source="00-jEsmdZW9ChJH3AIX_-20" target="oxKnPRSLN9aaxVHOPP5Y-4" edge="1">
          <mxGeometry relative="1" as="geometry">
            <Array as="points">
              <mxPoint x="680" y="182" />
              <mxPoint x="680" y="62" />
              <mxPoint x="838" y="62" />
            </Array>
          </mxGeometry>
        </mxCell>
        <mxCell id="00-jEsmdZW9ChJH3AIX_-20" value="Заказ отменен" style="rounded=1;whiteSpace=wrap;html=1;fillColor=#ffe6cc;strokeColor=#d79b00;shadow=1;" parent="1" vertex="1">
          <mxGeometry x="576.6300000000001" y="169.5" width="60.5" height="48.38" as="geometry" />
        </mxCell>
        <mxCell id="00-jEsmdZW9ChJH3AIX_-46" value="" style="edgeStyle=orthogonalEdgeStyle;rounded=1;orthogonalLoop=1;jettySize=auto;html=1;entryX=0;entryY=0.75;entryDx=0;entryDy=0;exitX=1;exitY=0.5;exitDx=0;exitDy=0;" parent="1" source="00-jEsmdZW9ChJH3AIX_-22" target="oxKnPRSLN9aaxVHOPP5Y-69" edge="1">
          <mxGeometry relative="1" as="geometry">
            <mxPoint x="850" y="130" as="targetPoint" />
            <Array as="points">
              <mxPoint x="610" y="981" />
              <mxPoint x="610" y="926" />
            </Array>
          </mxGeometry>
        </mxCell>
        <mxCell id="00-jEsmdZW9ChJH3AIX_-22" value="Воркер подобран" style="rounded=1;whiteSpace=wrap;html=1;fillColor=#ffe6cc;strokeColor=#d79b00;gradientColor=none;shadow=1;" parent="1" vertex="1">
          <mxGeometry x="306.1" y="951.5" width="61.06" height="59.25" as="geometry" />
        </mxCell>
        <mxCell id="oxKnPRSLN9aaxVHOPP5Y-107" style="edgeStyle=orthogonalEdgeStyle;rounded=1;orthogonalLoop=1;jettySize=auto;html=1;exitX=0.5;exitY=1;exitDx=0;exitDy=0;entryX=0;entryY=0.25;entryDx=0;entryDy=0;" parent="1" source="00-jEsmdZW9ChJH3AIX_-25" target="oxKnPRSLN9aaxVHOPP5Y-20" edge="1">
          <mxGeometry relative="1" as="geometry">
            <Array as="points">
              <mxPoint x="365" y="300" />
              <mxPoint x="150" y="300" />
              <mxPoint x="150" y="572" />
            </Array>
          </mxGeometry>
        </mxCell>
        <mxCell id="00-jEsmdZW9ChJH3AIX_-25" value="Работа над заказом завершена" style="rounded=1;whiteSpace=wrap;html=1;fillColor=#ffe6cc;strokeColor=#d79b00;gradientColor=none;shadow=1;" parent="1" vertex="1">
          <mxGeometry x="324.88" y="210.91999999999996" width="81.06" height="69.5" as="geometry" />
        </mxCell>
        <mxCell id="00-jEsmdZW9ChJH3AIX_-27" value="Воркер зарегистрирован" style="rounded=1;whiteSpace=wrap;html=1;fillColor=#ffe6cc;strokeColor=#d79b00;gradientColor=none;shadow=1;" parent="1" vertex="1">
          <mxGeometry x="1672.57" y="828.38" width="109.43" height="81.38" as="geometry" />
        </mxCell>
        <mxCell id="00-jEsmdZW9ChJH3AIX_-28" value="Набор тестов для регистрации воркера добавлен/изменен" style="rounded=1;whiteSpace=wrap;html=1;fillColor=#ffe6cc;strokeColor=#d79b00;gradientColor=none;shadow=1;" parent="1" vertex="1">
          <mxGeometry x="1634.99" y="488.88" width="98.26" height="89.5" as="geometry" />
        </mxCell>
        <mxCell id="oxKnPRSLN9aaxVHOPP5Y-74" style="edgeStyle=orthogonalEdgeStyle;rounded=1;orthogonalLoop=1;jettySize=auto;html=1;" parent="1" source="00-jEsmdZW9ChJH3AIX_-29" target="oxKnPRSLN9aaxVHOPP5Y-72" edge="1">
          <mxGeometry relative="1" as="geometry" />
        </mxCell>
        <mxCell id="oxKnPRSLN9aaxVHOPP5Y-98" style="edgeStyle=orthogonalEdgeStyle;rounded=1;orthogonalLoop=1;jettySize=auto;html=1;entryX=0.5;entryY=0;entryDx=0;entryDy=0;exitX=0.5;exitY=1;exitDx=0;exitDy=0;" parent="1" source="00-jEsmdZW9ChJH3AIX_-29" target="oxKnPRSLN9aaxVHOPP5Y-37" edge="1">
          <mxGeometry relative="1" as="geometry">
            <Array as="points">
              <mxPoint x="1578.25" y="718.38" />
              <mxPoint x="1413.25" y="718.38" />
              <mxPoint x="1413.25" y="829.38" />
            </Array>
          </mxGeometry>
        </mxCell>
        <mxCell id="00-jEsmdZW9ChJH3AIX_-29" value="Воркер оставил заявку на регистрацию" style="rounded=1;whiteSpace=wrap;html=1;fillColor=#ffe6cc;strokeColor=#d79b00;gradientColor=none;shadow=1;" parent="1" vertex="1">
          <mxGeometry x="1532.75" y="608.88" width="90.5" height="85.5" as="geometry" />
        </mxCell>
        <mxCell id="00-jEsmdZW9ChJH3AIX_-32" value="Предложено создать новый заказ" style="rounded=1;whiteSpace=wrap;html=1;fillColor=#ffe6cc;strokeColor=#d79b00;shadow=1;" parent="1" vertex="1">
          <mxGeometry x="585.69" y="684.6199999999999" width="87.03" height="83.13" as="geometry" />
        </mxCell>
        <mxCell id="00-jEsmdZW9ChJH3AIX_-49" style="edgeStyle=orthogonalEdgeStyle;rounded=1;orthogonalLoop=1;jettySize=auto;html=1;" parent="1" source="00-jEsmdZW9ChJH3AIX_-33" target="oxKnPRSLN9aaxVHOPP5Y-4" edge="1">
          <mxGeometry relative="1" as="geometry">
            <Array as="points">
              <mxPoint x="534" y="320" />
              <mxPoint x="570" y="320" />
              <mxPoint x="570" y="40" />
              <mxPoint x="859" y="40" />
            </Array>
          </mxGeometry>
        </mxCell>
        <mxCell id="00-jEsmdZW9ChJH3AIX_-133" style="edgeStyle=orthogonalEdgeStyle;rounded=1;orthogonalLoop=1;jettySize=auto;html=1;exitX=0.75;exitY=1;exitDx=0;exitDy=0;" parent="1" source="00-jEsmdZW9ChJH3AIX_-33" target="00-jEsmdZW9ChJH3AIX_-132" edge="1">
          <mxGeometry relative="1" as="geometry">
            <Array as="points">
              <mxPoint x="550" y="610" />
              <mxPoint x="550" y="610" />
            </Array>
          </mxGeometry>
        </mxCell>
        <mxCell id="00-jEsmdZW9ChJH3AIX_-33" value="Заказ провален воркером" style="rounded=1;whiteSpace=wrap;html=1;fillColor=#ffe6cc;strokeColor=#d79b00;shadow=1;" parent="1" vertex="1">
          <mxGeometry x="501.63000000000005" y="329.25" width="64.56" height="60" as="geometry" />
        </mxCell>
        <mxCell id="00-jEsmdZW9ChJH3AIX_-38" value="Расходники собраны" style="rounded=1;whiteSpace=wrap;html=1;fillColor=#ffe6cc;strokeColor=#d79b00;gradientColor=none;shadow=1;" parent="1" vertex="1">
          <mxGeometry x="963.3800000000001" y="1088.75" width="76.62" height="70" as="geometry" />
        </mxCell>
        <mxCell id="00-jEsmdZW9ChJH3AIX_-40" value="Информация о клиенте" style="rounded=1;whiteSpace=wrap;html=1;fillColor=#d5e8d4;strokeColor=#82b366;shadow=1;glass=0;" parent="1" vertex="1">
          <mxGeometry x="979.5" y="877.4399999999998" width="90" height="78" as="geometry" />
        </mxCell>
        <mxCell id="00-jEsmdZW9ChJH3AIX_-43" value="Печенька отправлена на склад" style="rounded=1;whiteSpace=wrap;html=1;fillColor=#ffe6cc;strokeColor=#d79b00;gradientColor=none;shadow=1;" parent="1" vertex="1">
          <mxGeometry x="1185.5" y="879.1899999999998" width="92.5" height="82.5" as="geometry" />
        </mxCell>
        <mxCell id="00-jEsmdZW9ChJH3AIX_-47" value="Проверка качества работы завершена" style="rounded=1;whiteSpace=wrap;html=1;fillColor=#ffe6cc;strokeColor=#d79b00;gradientColor=none;shadow=1;" parent="1" vertex="1">
          <mxGeometry x="1000" y="177.87" width="90" height="79.25" as="geometry" />
        </mxCell>
        <mxCell id="00-jEsmdZW9ChJH3AIX_-53" value="External system" style="rounded=1;whiteSpace=wrap;html=1;fillColor=#f8cecc;strokeColor=#b85450;shadow=1;glass=0;" parent="1" vertex="1">
          <mxGeometry x="25" y="247.5" width="80" height="30" as="geometry" />
        </mxCell>
        <mxCell id="00-jEsmdZW9ChJH3AIX_-54" value="Comment" style="rounded=1;whiteSpace=wrap;html=1;shadow=1;glass=0;" parent="1" vertex="1">
          <mxGeometry x="25" y="290" width="80" height="30" as="geometry" />
        </mxCell>
        <mxCell id="00-jEsmdZW9ChJH3AIX_-55" value="Планировщик задач" style="rounded=1;whiteSpace=wrap;html=1;fillColor=#f8cecc;strokeColor=#b85450;shadow=1;glass=0;" parent="1" vertex="1">
          <mxGeometry x="1336.75" y="83" width="87.25" height="73.5" as="geometry" />
        </mxCell>
        <mxCell id="00-jEsmdZW9ChJH3AIX_-56" value="Каждое воскресенье" style="rounded=1;whiteSpace=wrap;html=1;fillColor=#e1d5e7;strokeColor=#9673a6;shadow=1;glass=0;" parent="1" vertex="1">
          <mxGeometry x="1431.37" y="83" width="77.25" height="73.5" as="geometry" />
        </mxCell>
        <mxCell id="00-jEsmdZW9ChJH3AIX_-57" value="Средства со счета клиента списаны" style="rounded=1;whiteSpace=wrap;html=1;fillColor=#ffe6cc;strokeColor=#d79b00;gradientColor=none;shadow=1;" parent="1" vertex="1">
          <mxGeometry x="1608.88" y="84.75" width="80" height="72.87" as="geometry" />
        </mxCell>
        <mxCell id="00-jEsmdZW9ChJH3AIX_-58" value="Планировщик задач" style="rounded=1;whiteSpace=wrap;html=1;fillColor=#f8cecc;strokeColor=#b85450;shadow=1;glass=0;" parent="1" vertex="1">
          <mxGeometry x="1335" y="178.25" width="90" height="70.5" as="geometry" />
        </mxCell>
        <mxCell id="00-jEsmdZW9ChJH3AIX_-59" value="Каждый месяц" style="rounded=1;whiteSpace=wrap;html=1;fillColor=#e1d5e7;strokeColor=#9673a6;shadow=1;glass=0;" parent="1" vertex="1">
          <mxGeometry x="1434" y="182.25" width="61" height="60.5" as="geometry" />
        </mxCell>
        <mxCell id="00-jEsmdZW9ChJH3AIX_-60" value="Средства на счет воркера перечислены" style="rounded=1;whiteSpace=wrap;html=1;fillColor=#ffe6cc;strokeColor=#d79b00;gradientColor=none;shadow=1;" parent="1" vertex="1">
          <mxGeometry x="1605" y="173" width="90" height="85.75" as="geometry" />
        </mxCell>
        <mxCell id="00-jEsmdZW9ChJH3AIX_-62" value="Менеджер" style="rounded=1;whiteSpace=wrap;html=1;fillColor=#fff2cc;strokeColor=#d6b656;shadow=1;" parent="1" vertex="1">
          <mxGeometry x="1335" y="271.25" width="70" height="63.5" as="geometry" />
        </mxCell>
        <mxCell id="00-jEsmdZW9ChJH3AIX_-68" value="Менеджер" style="rounded=1;whiteSpace=wrap;html=1;fillColor=#fff2cc;strokeColor=#d6b656;shadow=1;" parent="1" vertex="1">
          <mxGeometry x="830.0000000000001" y="467.75" width="70" height="63.75" as="geometry" />
        </mxCell>
        <mxCell id="00-jEsmdZW9ChJH3AIX_-69" value="Ставка совершена" style="rounded=1;whiteSpace=wrap;html=1;fillColor=#ffe6cc;strokeColor=#d79b00;gradientColor=none;shadow=1;" parent="1" vertex="1">
          <mxGeometry x="980.0000000000001" y="467.75" width="70" height="63.75" as="geometry" />
        </mxCell>
        <mxCell id="00-jEsmdZW9ChJH3AIX_-71" value="Банк ставок распределен" style="rounded=1;whiteSpace=wrap;html=1;fillColor=#ffe6cc;strokeColor=#d79b00;gradientColor=none;shadow=1;" parent="1" vertex="1">
          <mxGeometry x="1030" y="669" width="80" height="81" as="geometry" />
        </mxCell>
        <mxCell id="00-jEsmdZW9ChJH3AIX_-73" value="Старший Менеджер" style="rounded=1;whiteSpace=wrap;html=1;fillColor=#fff2cc;strokeColor=#d6b656;shadow=1;" parent="1" vertex="1">
          <mxGeometry x="846" y="675.75" width="79.5" height="64.25" as="geometry" />
        </mxCell>
        <mxCell id="00-jEsmdZW9ChJH3AIX_-74" style="edgeStyle=orthogonalEdgeStyle;rounded=1;orthogonalLoop=1;jettySize=auto;html=1;exitX=1;exitY=0.75;exitDx=0;exitDy=0;entryX=0;entryY=0.5;entryDx=0;entryDy=0;" parent="1" source="00-jEsmdZW9ChJH3AIX_-33" target="oxKnPRSLN9aaxVHOPP5Y-20" edge="1">
          <mxGeometry relative="1" as="geometry">
            <Array as="points">
              <mxPoint x="700" y="372" />
              <mxPoint x="700" y="597" />
            </Array>
          </mxGeometry>
        </mxCell>
        <mxCell id="00-jEsmdZW9ChJH3AIX_-75" style="edgeStyle=orthogonalEdgeStyle;rounded=1;orthogonalLoop=1;jettySize=auto;html=1;entryX=0;entryY=0.75;entryDx=0;entryDy=0;exitX=1.027;exitY=0.685;exitDx=0;exitDy=0;exitPerimeter=0;" parent="1" source="00-jEsmdZW9ChJH3AIX_-20" target="oxKnPRSLN9aaxVHOPP5Y-20" edge="1">
          <mxGeometry relative="1" as="geometry">
            <Array as="points">
              <mxPoint x="680" y="203" />
              <mxPoint x="680" y="621" />
            </Array>
            <mxPoint x="570" y="540" as="sourcePoint" />
          </mxGeometry>
        </mxCell>
        <mxCell id="00-jEsmdZW9ChJH3AIX_-80" value="Штраф начислен" style="rounded=1;whiteSpace=wrap;html=1;fillColor=#ffe6cc;strokeColor=#d79b00;shadow=1;" parent="1" vertex="1">
          <mxGeometry x="340.32" y="458.06999999999994" width="67" height="59.88" as="geometry" />
        </mxCell>
        <mxCell id="00-jEsmdZW9ChJH3AIX_-117" value="Клиент" style="rounded=1;whiteSpace=wrap;html=1;fillColor=#fff2cc;strokeColor=#d6b656;shadow=1;glass=0;" parent="1" vertex="1">
          <mxGeometry x="164.63" y="688.75" width="54.06" height="49" as="geometry" />
        </mxCell>
        <mxCell id="00-jEsmdZW9ChJH3AIX_-118" value="Создать заказ" style="rounded=1;whiteSpace=wrap;html=1;fillColor=#dae8fc;strokeColor=#6c8ebf;shadow=1;glass=0;" parent="1" vertex="1">
          <mxGeometry x="229.63" y="684.75" width="64.06" height="57" as="geometry" />
        </mxCell>
        <mxCell id="00-jEsmdZW9ChJH3AIX_-120" value="Выбрать воркера" style="rounded=1;whiteSpace=wrap;html=1;fillColor=#dae8fc;strokeColor=#6c8ebf;shadow=1;glass=0;" parent="1" vertex="1">
          <mxGeometry x="235.6" y="951.5" width="59.06" height="58.75" as="geometry" />
        </mxCell>
        <mxCell id="00-jEsmdZW9ChJH3AIX_-122" value="Статус заказа изменен" style="rounded=1;whiteSpace=wrap;html=1;fillColor=#ffe6cc;strokeColor=#d79b00;shadow=1;" parent="1" vertex="1">
          <mxGeometry x="576.6300000000001" y="102" width="60.5" height="57.88" as="geometry" />
        </mxCell>
        <mxCell id="00-jEsmdZW9ChJH3AIX_-123" value="Клиент" style="rounded=1;whiteSpace=wrap;html=1;fillColor=#fff2cc;strokeColor=#d6b656;shadow=1;" parent="1" vertex="1">
          <mxGeometry x="425.94" y="164.88" width="60.5" height="57.88" as="geometry" />
        </mxCell>
        <mxCell id="00-jEsmdZW9ChJH3AIX_-124" value="Изменить статус заказа" style="rounded=1;whiteSpace=wrap;html=1;fillColor=#dae8fc;strokeColor=#6c8ebf;shadow=1;" parent="1" vertex="1">
          <mxGeometry x="495.69" y="164.37" width="70.5" height="58.38" as="geometry" />
        </mxCell>
        <mxCell id="00-jEsmdZW9ChJH3AIX_-126" value="Завершить работу над заказом" style="rounded=1;whiteSpace=wrap;html=1;fillColor=#dae8fc;strokeColor=#6c8ebf;shadow=1;" parent="1" vertex="1">
          <mxGeometry x="241.91" y="207.91999999999996" width="74" height="68.5" as="geometry" />
        </mxCell>
        <mxCell id="00-jEsmdZW9ChJH3AIX_-127" value="Воркер" style="rounded=1;whiteSpace=wrap;html=1;fillColor=#fff2cc;strokeColor=#d6b656;shadow=1;" parent="1" vertex="1">
          <mxGeometry x="175.94" y="211.41999999999996" width="54" height="48" as="geometry" />
        </mxCell>
        <mxCell id="00-jEsmdZW9ChJH3AIX_-128" value="Наступил дедлайн" style="rounded=1;whiteSpace=wrap;html=1;fillColor=#e1d5e7;strokeColor=#9673a6;shadow=1;glass=0;" parent="1" vertex="1">
          <mxGeometry x="338.07" y="324.75" width="64.56" height="60" as="geometry" />
        </mxCell>
        <mxCell id="00-jEsmdZW9ChJH3AIX_-129" value="Изменить статус заказа на &quot;провален&quot;" style="rounded=1;whiteSpace=wrap;html=1;fillColor=#dae8fc;strokeColor=#6c8ebf;shadow=1;" parent="1" vertex="1">
          <mxGeometry x="414.63" y="324.75" width="74.56" height="70" as="geometry" />
        </mxCell>
        <mxCell id="00-jEsmdZW9ChJH3AIX_-130" value="Начислить штраф за провал заказа" style="rounded=1;whiteSpace=wrap;html=1;fillColor=#dae8fc;strokeColor=#6c8ebf;shadow=1;" parent="1" vertex="1">
          <mxGeometry x="249.94" y="448.06999999999994" width="77" height="69.88" as="geometry" />
        </mxCell>
        <mxCell id="00-jEsmdZW9ChJH3AIX_-131" style="edgeStyle=orthogonalEdgeStyle;rounded=1;orthogonalLoop=1;jettySize=auto;html=1;entryX=0.5;entryY=0;entryDx=0;entryDy=0;" parent="1" source="00-jEsmdZW9ChJH3AIX_-33" target="00-jEsmdZW9ChJH3AIX_-130" edge="1">
          <mxGeometry relative="1" as="geometry">
            <Array as="points">
              <mxPoint x="528.06" y="410" />
              <mxPoint x="288.06" y="410" />
            </Array>
          </mxGeometry>
        </mxCell>
        <mxCell id="00-jEsmdZW9ChJH3AIX_-132" value="Предложить создать новый заказ" style="rounded=1;whiteSpace=wrap;html=1;fillColor=#dae8fc;strokeColor=#6c8ebf;shadow=1;" parent="1" vertex="1">
          <mxGeometry x="486.79" y="684.6199999999999" width="86.03" height="83.13" as="geometry" />
        </mxCell>
        <mxCell id="oxKnPRSLN9aaxVHOPP5Y-1" value="Менеджер" style="rounded=1;whiteSpace=wrap;html=1;fillColor=#fff2cc;strokeColor=#d6b656;shadow=1;" parent="1" vertex="1">
          <mxGeometry x="817.88" y="185.5" width="73.12" height="64" as="geometry" />
        </mxCell>
        <mxCell id="oxKnPRSLN9aaxVHOPP5Y-2" value="Проверить качество выполнения заказа" style="rounded=1;whiteSpace=wrap;html=1;fillColor=#dae8fc;strokeColor=#6c8ebf;shadow=1;" parent="1" vertex="1">
          <mxGeometry x="899.88" y="180.25" width="83.12" height="74.5" as="geometry" />
        </mxCell>
        <mxCell id="oxKnPRSLN9aaxVHOPP5Y-6" value="" style="edgeStyle=orthogonalEdgeStyle;rounded=1;orthogonalLoop=1;jettySize=auto;html=1;" parent="1" source="oxKnPRSLN9aaxVHOPP5Y-4" target="oxKnPRSLN9aaxVHOPP5Y-5" edge="1">
          <mxGeometry relative="1" as="geometry" />
        </mxCell>
        <mxCell id="oxKnPRSLN9aaxVHOPP5Y-4" value="Выбрать менеджера для проверки заказа" style="rounded=1;whiteSpace=wrap;html=1;fillColor=#dae8fc;strokeColor=#6c8ebf;shadow=1;" parent="1" vertex="1">
          <mxGeometry x="817.88" y="81.5" width="82.12" height="69" as="geometry" />
        </mxCell>
        <mxCell id="oxKnPRSLN9aaxVHOPP5Y-5" value="Менеджер для проверки заказа выбран" style="rounded=1;whiteSpace=wrap;html=1;fillColor=#ffe6cc;strokeColor=#d79b00;shadow=1;" parent="1" vertex="1">
          <mxGeometry x="935.5" y="76" width="90" height="79" as="geometry" />
        </mxCell>
        <mxCell id="oxKnPRSLN9aaxVHOPP5Y-7" value="Работник склада" style="rounded=1;whiteSpace=wrap;html=1;fillColor=#fff2cc;strokeColor=#d6b656;shadow=1;" parent="1" vertex="1">
          <mxGeometry x="798.87" y="1095.88" width="64.5" height="62.87" as="geometry" />
        </mxCell>
        <mxCell id="oxKnPRSLN9aaxVHOPP5Y-110" value="" style="edgeStyle=orthogonalEdgeStyle;rounded=1;orthogonalLoop=1;jettySize=auto;html=1;" parent="1" source="oxKnPRSLN9aaxVHOPP5Y-8" target="oxKnPRSLN9aaxVHOPP5Y-9" edge="1">
          <mxGeometry relative="1" as="geometry" />
        </mxCell>
        <mxCell id="oxKnPRSLN9aaxVHOPP5Y-8" value="Собрать расходники" style="rounded=1;whiteSpace=wrap;html=1;fillColor=#dae8fc;strokeColor=#6c8ebf;shadow=1;" parent="1" vertex="1">
          <mxGeometry x="873.37" y="1098.75" width="76.63" height="55" as="geometry" />
        </mxCell>
        <mxCell id="oxKnPRSLN9aaxVHOPP5Y-9" value="Служба доставки" style="rounded=1;whiteSpace=wrap;html=1;fillColor=#ffcccc;strokeColor=#36393d;shadow=1;glass=0;" parent="1" vertex="1">
          <mxGeometry x="871.6900000000002" y="1010.25" width="80" height="47.5" as="geometry" />
        </mxCell>
        <mxCell id="oxKnPRSLN9aaxVHOPP5Y-15" style="edgeStyle=orthogonalEdgeStyle;rounded=1;orthogonalLoop=1;jettySize=auto;html=1;entryX=0.5;entryY=1;entryDx=0;entryDy=0;exitX=0.98;exitY=0.605;exitDx=0;exitDy=0;exitPerimeter=0;" parent="1" edge="1">
          <mxGeometry relative="1" as="geometry">
            <mxPoint x="1221.5" y="65" as="targetPoint" />
            <Array as="points">
              <mxPoint x="1222" y="139" />
              <mxPoint x="1222" y="65" />
            </Array>
          </mxGeometry>
        </mxCell>
        <mxCell id="oxKnPRSLN9aaxVHOPP5Y-16" value="Уведомление о начале приема ставок отправлено" style="rounded=1;whiteSpace=wrap;html=1;fillColor=#ffe6cc;strokeColor=#d79b00;gradientColor=none;shadow=1;" parent="1" vertex="1">
          <mxGeometry x="947.0000000000001" y="369" width="83" height="82.5" as="geometry" />
        </mxCell>
        <mxCell id="oxKnPRSLN9aaxVHOPP5Y-17" value="Отправить уведомление о приеме ставок" style="rounded=1;whiteSpace=wrap;html=1;fillColor=#dae8fc;strokeColor=#6c8ebf;shadow=1;" parent="1" vertex="1">
          <mxGeometry x="859.7500000000001" y="367.75" width="80" height="75" as="geometry" />
        </mxCell>
        <mxCell id="oxKnPRSLN9aaxVHOPP5Y-18" value="Сделать ставку" style="rounded=1;whiteSpace=wrap;html=1;fillColor=#dae8fc;strokeColor=#6c8ebf;shadow=1;" parent="1" vertex="1">
          <mxGeometry x="910.0000000000001" y="472.44000000000005" width="60" height="54.37" as="geometry" />
        </mxCell>
        <mxCell id="oxKnPRSLN9aaxVHOPP5Y-19" value="Распределить банк ставок" style="rounded=1;whiteSpace=wrap;html=1;fillColor=#dae8fc;strokeColor=#6c8ebf;shadow=1;" parent="1" vertex="1">
          <mxGeometry x="936" y="667.75" width="84" height="72.25" as="geometry" />
        </mxCell>
        <mxCell id="oxKnPRSLN9aaxVHOPP5Y-20" value="Уведомить старшего менеджера о завершении заказа" style="rounded=1;whiteSpace=wrap;html=1;fillColor=#dae8fc;strokeColor=#6c8ebf;shadow=1;" parent="1" vertex="1">
          <mxGeometry x="867" y="547.75" width="103" height="97.5" as="geometry" />
        </mxCell>
        <mxCell id="oxKnPRSLN9aaxVHOPP5Y-21" value="Старший менеджер уведомлен об окончании работы над заказом" style="rounded=1;whiteSpace=wrap;html=1;fillColor=#ffe6cc;strokeColor=#d79b00;gradientColor=none;shadow=1;" parent="1" vertex="1">
          <mxGeometry x="985.8200000000002" y="549" width="120" height="96.25" as="geometry" />
        </mxCell>
        <mxCell id="oxKnPRSLN9aaxVHOPP5Y-22" value="Воркер" style="rounded=1;whiteSpace=wrap;html=1;fillColor=#fff2cc;strokeColor=#d6b656;shadow=1;" parent="1" vertex="1">
          <mxGeometry x="1373.88" y="618" width="59.5" height="54" as="geometry" />
        </mxCell>
        <mxCell id="oxKnPRSLN9aaxVHOPP5Y-23" value="Оставить заявку на регистрацию" style="rounded=1;whiteSpace=wrap;html=1;fillColor=#dae8fc;strokeColor=#6c8ebf;shadow=1;" parent="1" vertex="1">
          <mxGeometry x="1442.25" y="610.38" width="81" height="74" as="geometry" />
        </mxCell>
        <mxCell id="oxKnPRSLN9aaxVHOPP5Y-24" value="Зарегистрировать воркера" style="rounded=1;whiteSpace=wrap;html=1;fillColor=#dae8fc;strokeColor=#6c8ebf;shadow=1;" parent="1" vertex="1">
          <mxGeometry x="1555" y="825.5" width="108.5" height="92.88" as="geometry" />
        </mxCell>
        <mxCell id="oxKnPRSLN9aaxVHOPP5Y-25" value="Менеджер" style="rounded=1;whiteSpace=wrap;html=1;fillColor=#fff2cc;strokeColor=#d6b656;shadow=1;" parent="1" vertex="1">
          <mxGeometry x="1471" y="834.88" width="72.75" height="69.88" as="geometry" />
        </mxCell>
        <mxCell id="oxKnPRSLN9aaxVHOPP5Y-26" value="Менеджер" style="rounded=1;whiteSpace=wrap;html=1;fillColor=#fff2cc;strokeColor=#d6b656;shadow=1;" parent="1" vertex="1">
          <mxGeometry x="1455" y="493.51" width="68.25" height="66.37" as="geometry" />
        </mxCell>
        <mxCell id="oxKnPRSLN9aaxVHOPP5Y-27" value="Добавить/изменить набор тестов для воркера" style="rounded=1;whiteSpace=wrap;html=1;fillColor=#dae8fc;strokeColor=#6c8ebf;shadow=1;" parent="1" vertex="1">
          <mxGeometry x="1535" y="488.88" width="88.25" height="81.87" as="geometry" />
        </mxCell>
        <mxCell id="oxKnPRSLN9aaxVHOPP5Y-28" value="Добавить изменить тип услуги" style="rounded=1;whiteSpace=wrap;html=1;fillColor=#dae8fc;strokeColor=#6c8ebf;shadow=1;" parent="1" vertex="1">
          <mxGeometry x="238.19" y="789.6300000000001" width="88.56" height="80" as="geometry" />
        </mxCell>
        <mxCell id="oxKnPRSLN9aaxVHOPP5Y-29" value="Менеджер" style="rounded=1;whiteSpace=wrap;html=1;fillColor=#fff2cc;strokeColor=#d6b656;shadow=1;" parent="1" vertex="1">
          <mxGeometry x="159.88" y="797.75" width="69" height="63.75" as="geometry" />
        </mxCell>
        <mxCell id="oxKnPRSLN9aaxVHOPP5Y-30" value="Списать средства со счета клиента" style="rounded=1;whiteSpace=wrap;html=1;fillColor=#dae8fc;strokeColor=#6c8ebf;shadow=1;" parent="1" vertex="1">
          <mxGeometry x="1523.13" y="84.75" width="73.75" height="71.75" as="geometry" />
        </mxCell>
        <mxCell id="oxKnPRSLN9aaxVHOPP5Y-31" value="Перечислить средства на счет воркера" style="rounded=1;whiteSpace=wrap;html=1;fillColor=#dae8fc;strokeColor=#6c8ebf;shadow=1;" parent="1" vertex="1">
          <mxGeometry x="1505" y="173" width="89.99" height="81.5" as="geometry" />
        </mxCell>
        <mxCell id="oxKnPRSLN9aaxVHOPP5Y-33" value="Дедлайн заказа" style="rounded=1;whiteSpace=wrap;html=1;fillColor=#d5e8d4;strokeColor=#82b366;shadow=1;glass=0;" parent="1" vertex="1">
          <mxGeometry x="176.19" y="322.75" width="61.56" height="62" as="geometry" />
        </mxCell>
        <mxCell id="oxKnPRSLN9aaxVHOPP5Y-34" value="Данные предыдущего заказа" style="rounded=1;whiteSpace=wrap;html=1;fillColor=#d5e8d4;strokeColor=#82b366;shadow=1;glass=0;" parent="1" vertex="1">
          <mxGeometry x="388.66" y="684.6199999999999" width="87.03" height="83.13" as="geometry" />
        </mxCell>
        <mxCell id="oxKnPRSLN9aaxVHOPP5Y-35" value="Данные счета воркера" style="rounded=1;whiteSpace=wrap;html=1;fillColor=#d5e8d4;strokeColor=#82b366;shadow=1;glass=0;" parent="1" vertex="1">
          <mxGeometry x="173.44" y="421.69000000000005" width="67" height="56.38" as="geometry" />
        </mxCell>
        <mxCell id="oxKnPRSLN9aaxVHOPP5Y-36" value="Сумма штрафа" style="rounded=1;whiteSpace=wrap;html=1;fillColor=#d5e8d4;strokeColor=#82b366;shadow=1;glass=0;" parent="1" vertex="1">
          <mxGeometry x="174.44" y="481.69000000000005" width="66" height="56.38" as="geometry" />
        </mxCell>
        <mxCell id="oxKnPRSLN9aaxVHOPP5Y-37" value="Заявка на регистрацию воркера" style="rounded=1;whiteSpace=wrap;html=1;fillColor=#d5e8d4;strokeColor=#82b366;shadow=1;glass=0;" parent="1" vertex="1">
          <mxGeometry x="1373.75" y="829.88" width="88.25" height="79.88" as="geometry" />
        </mxCell>
        <mxCell id="oxKnPRSLN9aaxVHOPP5Y-38" value="Набор тестов" style="rounded=1;whiteSpace=wrap;html=1;fillColor=#d5e8d4;strokeColor=#82b366;shadow=1;glass=0;" parent="1" vertex="1">
          <mxGeometry x="1380" y="492.01" width="63.25" height="56.37" as="geometry" />
        </mxCell>
        <mxCell id="oxKnPRSLN9aaxVHOPP5Y-39" value="Слишком очевидное,&amp;nbsp; удалить после моделей данных" style="rounded=1;whiteSpace=wrap;html=1;shadow=1;glass=0;" parent="1" vertex="1">
          <mxGeometry x="1365.13" y="438.38" width="124.87" height="65.5" as="geometry" />
        </mxCell>
        <mxCell id="oxKnPRSLN9aaxVHOPP5Y-40" value="Данные заказа" style="rounded=1;whiteSpace=wrap;html=1;fillColor=#d5e8d4;strokeColor=#82b366;shadow=1;glass=0;" parent="1" vertex="1">
          <mxGeometry x="732.6300000000001" y="1097.18" width="55.25" height="53.13" as="geometry" />
        </mxCell>
        <mxCell id="oxKnPRSLN9aaxVHOPP5Y-41" value="История работы над заказом" style="rounded=1;whiteSpace=wrap;html=1;fillColor=#d5e8d4;strokeColor=#82b366;shadow=1;glass=0;" parent="1" vertex="1">
          <mxGeometry x="730" y="175.5" width="80" height="84" as="geometry" />
        </mxCell>
        <mxCell id="oxKnPRSLN9aaxVHOPP5Y-42" value="Список доступных менеджеров" style="rounded=1;whiteSpace=wrap;html=1;fillColor=#d5e8d4;strokeColor=#82b366;shadow=1;glass=0;" parent="1" vertex="1">
          <mxGeometry x="732.63" y="80.5" width="74.74" height="70" as="geometry" />
        </mxCell>
        <mxCell id="oxKnPRSLN9aaxVHOPP5Y-43" value="Список доступных воркеров" style="rounded=1;whiteSpace=wrap;html=1;fillColor=#d5e8d4;strokeColor=#82b366;shadow=1;glass=0;" parent="1" vertex="1">
          <mxGeometry x="158.1" y="947" width="69.06" height="63.75" as="geometry" />
        </mxCell>
        <mxCell id="oxKnPRSLN9aaxVHOPP5Y-44" value="Список доступных менеджеров" style="rounded=1;whiteSpace=wrap;html=1;fillColor=#d5e8d4;strokeColor=#82b366;shadow=1;glass=0;" parent="1" vertex="1">
          <mxGeometry x="757.0000000000001" y="367.5" width="79" height="78" as="geometry" />
        </mxCell>
        <mxCell id="oxKnPRSLN9aaxVHOPP5Y-45" value="Данные заказа" style="rounded=1;whiteSpace=wrap;html=1;fillColor=#d5e8d4;strokeColor=#82b366;shadow=1;glass=0;" parent="1" vertex="1">
          <mxGeometry x="760.0000000000001" y="467.75" width="60" height="53.75" as="geometry" />
        </mxCell>
        <mxCell id="oxKnPRSLN9aaxVHOPP5Y-46" value="Данные заказа" style="rounded=1;whiteSpace=wrap;html=1;fillColor=#d5e8d4;strokeColor=#82b366;shadow=1;glass=0;" parent="1" vertex="1">
          <mxGeometry x="757" y="650" width="80" height="40.25" as="geometry" />
        </mxCell>
        <mxCell id="oxKnPRSLN9aaxVHOPP5Y-47" value="Ставки менеджеров" style="rounded=1;whiteSpace=wrap;html=1;fillColor=#d5e8d4;strokeColor=#82b366;shadow=1;glass=0;" parent="1" vertex="1">
          <mxGeometry x="757" y="699" width="80" height="51" as="geometry" />
        </mxCell>
        <mxCell id="oxKnPRSLN9aaxVHOPP5Y-48" value="Результат выполнения заказа" style="rounded=1;whiteSpace=wrap;html=1;fillColor=#d5e8d4;strokeColor=#82b366;shadow=1;glass=0;" parent="1" vertex="1">
          <mxGeometry x="757.0000000000001" y="547.75" width="80" height="90" as="geometry" />
        </mxCell>
        <mxCell id="oxKnPRSLN9aaxVHOPP5Y-49" value="Данные счета воркера" style="rounded=1;whiteSpace=wrap;html=1;fillColor=#d5e8d4;strokeColor=#82b366;shadow=1;glass=0;" parent="1" vertex="1">
          <mxGeometry x="1255" y="271.25" width="70" height="63.5" as="geometry" />
        </mxCell>
        <mxCell id="oxKnPRSLN9aaxVHOPP5Y-50" value="Платежные данные клиентов" style="rounded=1;whiteSpace=wrap;html=1;fillColor=#d5e8d4;strokeColor=#82b366;shadow=1;glass=0;" parent="1" vertex="1">
          <mxGeometry x="1248.75" y="84.75" width="76.25" height="70" as="geometry" />
        </mxCell>
        <mxCell id="oxKnPRSLN9aaxVHOPP5Y-53" value="&lt;b&gt;Создание и управление заказом&lt;/b&gt;" style="text;html=1;strokeColor=none;fillColor=none;align=center;verticalAlign=middle;whiteSpace=wrap;rounded=1;" parent="1" vertex="1">
          <mxGeometry x="263.69" y="637.7500000000001" width="320" height="30" as="geometry" />
        </mxCell>
        <mxCell id="oxKnPRSLN9aaxVHOPP5Y-56" value="&lt;b&gt;Регистрация и тестирование воркера&lt;/b&gt;" style="text;html=1;strokeColor=none;fillColor=none;align=center;verticalAlign=middle;whiteSpace=wrap;rounded=1;" parent="1" vertex="1">
          <mxGeometry x="1503.25" y="438.38" width="245" height="30" as="geometry" />
        </mxCell>
        <mxCell id="oxKnPRSLN9aaxVHOPP5Y-61" value="&lt;b&gt;Инвентаризация и склад&lt;/b&gt;" style="text;html=1;strokeColor=none;fillColor=none;align=center;verticalAlign=middle;whiteSpace=wrap;rounded=1;" parent="1" vertex="1">
          <mxGeometry x="936.0000000000001" y="810" width="181" height="30" as="geometry" />
        </mxCell>
        <mxCell id="oxKnPRSLN9aaxVHOPP5Y-63" value="&lt;b&gt;Система ставок&lt;/b&gt;" style="text;html=1;strokeColor=none;fillColor=none;align=center;verticalAlign=middle;whiteSpace=wrap;rounded=1;" parent="1" vertex="1">
          <mxGeometry x="889.5000000000001" y="334" width="181" height="30" as="geometry" />
        </mxCell>
        <mxCell id="oxKnPRSLN9aaxVHOPP5Y-65" value="&lt;b&gt;Отдел контроля качества&lt;/b&gt;" style="text;html=1;strokeColor=none;fillColor=none;align=center;verticalAlign=middle;whiteSpace=wrap;rounded=1;" parent="1" vertex="1">
          <mxGeometry x="859" y="47.5" width="181" height="30" as="geometry" />
        </mxCell>
        <mxCell id="oxKnPRSLN9aaxVHOPP5Y-67" value="&lt;b&gt;Выплаты денежных средств&lt;/b&gt;" style="text;html=1;strokeColor=none;fillColor=none;align=center;verticalAlign=middle;whiteSpace=wrap;rounded=1;" parent="1" vertex="1">
          <mxGeometry x="1424" y="54.870000000000005" width="181" height="30" as="geometry" />
        </mxCell>
        <mxCell id="oxKnPRSLN9aaxVHOPP5Y-68" value="Сотрудник склада назначен на сборку" style="rounded=1;whiteSpace=wrap;html=1;fillColor=#ffe6cc;strokeColor=#d79b00;gradientColor=none;shadow=1;" parent="1" vertex="1">
          <mxGeometry x="847.8800000000001" y="867.1899999999998" width="82" height="80" as="geometry" />
        </mxCell>
        <mxCell id="oxKnPRSLN9aaxVHOPP5Y-69" value="Назначить сборку на свободного сотрудника склада" style="rounded=1;whiteSpace=wrap;html=1;fillColor=#dae8fc;strokeColor=#6c8ebf;shadow=1;" parent="1" vertex="1">
          <mxGeometry x="741.38" y="858.9999999999998" width="97.25" height="90" as="geometry" />
        </mxCell>
        <mxCell id="oxKnPRSLN9aaxVHOPP5Y-70" value="Заказ выполнен" style="rounded=1;whiteSpace=wrap;html=1;fillColor=#ffe6cc;strokeColor=#d79b00;shadow=1;" parent="1" vertex="1">
          <mxGeometry x="576.6300000000001" y="226.62" width="69.5" height="63.38" as="geometry" />
        </mxCell>
        <mxCell id="oxKnPRSLN9aaxVHOPP5Y-72" value="Назначить доступного менеджера на обработку новой заявки" style="rounded=1;whiteSpace=wrap;html=1;fillColor=#dae8fc;strokeColor=#6c8ebf;shadow=1;" parent="1" vertex="1">
          <mxGeometry x="1673.8200000000002" y="600.38" width="104.37" height="103" as="geometry" />
        </mxCell>
        <mxCell id="oxKnPRSLN9aaxVHOPP5Y-73" value="Менеджер назначен на обработку заявки" style="rounded=1;whiteSpace=wrap;html=1;fillColor=#ffe6cc;strokeColor=#d79b00;gradientColor=none;shadow=1;" parent="1" vertex="1">
          <mxGeometry x="1794" y="618" width="89.25" height="80" as="geometry" />
        </mxCell>
        <mxCell id="oxKnPRSLN9aaxVHOPP5Y-75" value="Воркер" style="rounded=1;whiteSpace=wrap;html=1;fillColor=#fff2cc;strokeColor=#d6b656;shadow=1;" parent="1" vertex="1">
          <mxGeometry x="1600.66" y="734.45" width="56" height="51.88" as="geometry" />
        </mxCell>
        <mxCell id="oxKnPRSLN9aaxVHOPP5Y-76" value="Завершить тестирование" style="rounded=1;whiteSpace=wrap;html=1;fillColor=#dae8fc;strokeColor=#6c8ebf;shadow=1;" parent="1" vertex="1">
          <mxGeometry x="1666.78" y="718.38" width="86" height="82.38" as="geometry" />
        </mxCell>
        <mxCell id="oxKnPRSLN9aaxVHOPP5Y-77" value="Тестирование завершено" style="rounded=1;whiteSpace=wrap;html=1;fillColor=#ffe6cc;strokeColor=#d79b00;gradientColor=none;shadow=1;" parent="1" vertex="1">
          <mxGeometry x="1762.28" y="719.95" width="91.63" height="82.38" as="geometry" />
        </mxCell>
        <mxCell id="oxKnPRSLN9aaxVHOPP5Y-80" value="Работник склада" style="rounded=1;whiteSpace=wrap;html=1;fillColor=#fff2cc;strokeColor=#d6b656;shadow=1;" parent="1" vertex="1">
          <mxGeometry x="994.88" y="1000.17" width="68.12" height="60" as="geometry" />
        </mxCell>
        <mxCell id="oxKnPRSLN9aaxVHOPP5Y-109" value="" style="edgeStyle=orthogonalEdgeStyle;rounded=1;orthogonalLoop=1;jettySize=auto;html=1;" parent="1" source="oxKnPRSLN9aaxVHOPP5Y-81" target="00-jEsmdZW9ChJH3AIX_-8" edge="1">
          <mxGeometry relative="1" as="geometry" />
        </mxCell>
        <mxCell id="oxKnPRSLN9aaxVHOPP5Y-81" value="Заказать печеньку" style="rounded=1;whiteSpace=wrap;html=1;fillColor=#dae8fc;strokeColor=#6c8ebf;shadow=1;" parent="1" vertex="1">
          <mxGeometry x="1078.82" y="994.75" width="77.12" height="70" as="geometry" />
        </mxCell>
        <mxCell id="oxKnPRSLN9aaxVHOPP5Y-82" value="Печенька заказана" style="rounded=1;whiteSpace=wrap;html=1;fillColor=#ffe6cc;strokeColor=#d79b00;gradientColor=none;shadow=1;" parent="1" vertex="1">
          <mxGeometry x="1173" y="994.7500000000001" width="71" height="70" as="geometry" />
        </mxCell>
        <mxCell id="oxKnPRSLN9aaxVHOPP5Y-84" value="&lt;b&gt;Система мэтчинга&lt;/b&gt;" style="text;html=1;strokeColor=none;fillColor=none;align=center;verticalAlign=middle;whiteSpace=wrap;rounded=1;" parent="1" vertex="1">
          <mxGeometry x="192.63000000000002" y="919" width="145" height="30" as="geometry" />
        </mxCell>
        <mxCell id="oxKnPRSLN9aaxVHOPP5Y-87" value="&lt;b&gt;Жизненный цикл заказа&lt;/b&gt;" style="text;html=1;strokeColor=none;fillColor=none;align=center;verticalAlign=middle;whiteSpace=wrap;rounded=1;" parent="1" vertex="1">
          <mxGeometry x="247" y="70.75" width="181" height="30" as="geometry" />
        </mxCell>
        <mxCell id="oxKnPRSLN9aaxVHOPP5Y-88" value="Планировщик задач" style="rounded=1;whiteSpace=wrap;html=1;fillColor=#f8cecc;strokeColor=#b85450;shadow=1;glass=0;" parent="1" vertex="1">
          <mxGeometry x="246.69" y="320" width="81.06" height="69.25" as="geometry" />
        </mxCell>
        <mxCell id="oxKnPRSLN9aaxVHOPP5Y-90" value="Воркер" style="rounded=1;whiteSpace=wrap;html=1;fillColor=#fff2cc;strokeColor=#d6b656;shadow=1;" parent="1" vertex="1">
          <mxGeometry x="176.19" y="107.78999999999999" width="57" height="55" as="geometry" />
        </mxCell>
        <mxCell id="oxKnPRSLN9aaxVHOPP5Y-91" value="Приступить к заказу" style="rounded=1;whiteSpace=wrap;html=1;fillColor=#dae8fc;strokeColor=#6c8ebf;shadow=1;" parent="1" vertex="1">
          <mxGeometry x="245.94" y="107.28999999999999" width="67" height="65.5" as="geometry" />
        </mxCell>
        <mxCell id="oxKnPRSLN9aaxVHOPP5Y-92" value="Работа над заказом начата" style="rounded=1;whiteSpace=wrap;html=1;fillColor=#ffe6cc;strokeColor=#d79b00;gradientColor=none;shadow=1;" parent="1" vertex="1">
          <mxGeometry x="324.88" y="107.22999999999999" width="75" height="73.19" as="geometry" />
        </mxCell>
        <mxCell id="oxKnPRSLN9aaxVHOPP5Y-93" value="Платежные данные клиентов" style="rounded=1;whiteSpace=wrap;html=1;fillColor=#d5e8d4;strokeColor=#82b366;shadow=1;glass=0;" parent="1" vertex="1">
          <mxGeometry x="1248.75" y="172.75" width="76.25" height="70" as="geometry" />
        </mxCell>
        <mxCell id="oxKnPRSLN9aaxVHOPP5Y-95" value="Перечислить средства на счет воркера" style="rounded=1;whiteSpace=wrap;html=1;fillColor=#dae8fc;strokeColor=#6c8ebf;shadow=1;" parent="1" vertex="1">
          <mxGeometry x="1420" y="271.25" width="89.99" height="81.5" as="geometry" />
        </mxCell>
        <mxCell id="oxKnPRSLN9aaxVHOPP5Y-96" value="Средства на счет воркера перечислены" style="rounded=1;whiteSpace=wrap;html=1;fillColor=#ffe6cc;strokeColor=#d79b00;gradientColor=none;shadow=1;" parent="1" vertex="1">
          <mxGeometry x="1520" y="271.25" width="90" height="85.75" as="geometry" />
        </mxCell>
        <mxCell id="oxKnPRSLN9aaxVHOPP5Y-99" value="Набор тестов" style="rounded=1;whiteSpace=wrap;html=1;fillColor=#d5e8d4;strokeColor=#82b366;shadow=1;glass=0;" parent="1" vertex="1">
          <mxGeometry x="1530" y="734.4499999999999" width="63.25" height="56.37" as="geometry" />
        </mxCell>
        <mxCell id="oxKnPRSLN9aaxVHOPP5Y-106" value="Связь от заказ создан?" style="rounded=1;whiteSpace=wrap;html=1;shadow=1;glass=0;" parent="1" vertex="1">
          <mxGeometry x="971.25" y="843.45" width="76.25" height="54.87" as="geometry" />
        </mxCell>
        <mxCell id="oxKnPRSLN9aaxVHOPP5Y-108" style="edgeStyle=orthogonalEdgeStyle;rounded=1;orthogonalLoop=1;jettySize=auto;html=1;exitX=0.5;exitY=1;exitDx=0;exitDy=0;entryX=0.376;entryY=0.019;entryDx=0;entryDy=0;entryPerimeter=0;" parent="1" source="oxKnPRSLN9aaxVHOPP5Y-92" target="oxKnPRSLN9aaxVHOPP5Y-17" edge="1">
          <mxGeometry relative="1" as="geometry">
            <Array as="points">
              <mxPoint x="362" y="200" />
              <mxPoint x="420" y="200" />
              <mxPoint x="420" y="300" />
              <mxPoint x="670" y="300" />
              <mxPoint x="670" y="290" />
              <mxPoint x="690" y="290" />
              <mxPoint x="690" y="300" />
              <mxPoint x="890" y="300" />
            </Array>
          </mxGeometry>
        </mxCell>
      </root>
    </mxGraphModel>
  </diagram>
</mxfile>
